General
Unique ID                                : 210144904836846786625352432684387856827 (0x9E186FBDB700A21AA3B981EBA090F1BB)
Complete name                            : Les Revenants - S01E03 - Julie.mkv
Format                                   : Matroska
Format version                           : Version 4 / Version 2
File size                                : 1.12 GiB
Duration                                 : 49mn 4s
Overall bit rate                         : 3 263 Kbps
Encoded date                             : UTC 2013-02-01 05:00:54
Writing application                      : mkvmerge v6.0.0 ('Coming Up For Air') built on Jan 20 2013 09:52:00
Writing library                          : libebml v1.3.0 + libmatroska v1.4.0

Video
ID                                       : 1
Format                                   : AVC
Format/Info                              : Advanced Video Codec
Format profile                           : High@L4.1
Format settings, CABAC                   : Yes
Format settings, ReFrames                : 5 frames
Codec ID                                 : V_MPEG4/ISO/AVC
Duration                                 : 49mn 4s
Bit rate                                 : 2 750 Kbps
Width                                    : 1 280 pixels
Height                                   : 720 pixels
Display aspect ratio                     : 16:9
Frame rate mode                          : Constant
Frame rate                               : 25.000 fps
Color space                              : YUV
Chroma subsampling                       : 4:2:0
Bit depth                                : 8 bits
Scan type                                : Progressive
Bits/(Pixel*Frame)                       : 0.119
Stream size                              : 965 MiB (84%)
Title                                    : French
Writing library                          : x264 core 129 r2230 1cffe9f
Language                                 : French
Default                                  : Yes
Forced                                   : No

Audio
ID                                       : 2
Format                                   : AC-3
Format/Info                              : Audio Coding 3
Mode extension                           : CM (complete main)
Format settings, Endianness              : Big
Codec ID                                 : A_AC3
Duration                                 : 49mn 4s
Bit rate mode                            : Constant
Bit rate                                 : 448 Kbps
Channel(s)                               : 6 channels
Channel positions                        : Front: L C R, Side: L R, LFE
Sampling rate                            : 48.0 KHz
Bit depth                                : 16 bits
Compression mode                         : Lossy
Stream size                              : 157 MiB (14%)
Title                                    : French
Language                                 : French
Default                                  : Yes
Forced                                   : No

Text
ID                                       : 3
Format                                   : UTF-8
Codec ID                                 : S_TEXT/UTF8
Codec ID/Info                            : UTF-8 Plain Text
Title                                    : Español
Language                                 : Spanish
Default                                  : Yes
Forced                                   : No
